<svg xmlns="http://www.w3.org/2000/svg" viewBox="0 0 772.69 824.61"><defs><style>.cls-1{fill:#ffffff;fill-rule:evenodd;}</style></defs><title>Asset 1</title><g id="Layer_2" data-name="Layer 2"><g id="Modo_de_aislamiento" data-name="Modo de aislamiento"><path class="cls-1" d="M75.28,124.61c1.59-.84,3.12-1.37,4.45-.5C78.89,124.42,76.41,126.12,75.28,124.61Z"/><path class="cls-1" d="M247.81.35c1-1.11,2,.7.52,1.13A1.6,1.6,0,0,1,247.81.35Z"/><path class="cls-1" d="M1.41,236.66c.25.33.48.68.71,1C1.17,240.82-1.7,236.56,1.41,236.66Z"/><path class="cls-1" d="M221.17,34.14c.47-.45.85-.22,1.17.33-.47.45-.9.56-1.22,0C221.31,34.37,221.24,34.25,221.17,34.14Z"/><path class="cls-1" d="M237.7,33.28c1.65.9,1.07,2.81.07,3.86C236.3,36.31,236.13,33.64,237.7,33.28Z"/><path class="cls-1" d="M20.06,194.49a.89.89,0,0,1-.22,1.33c0-.42-.14-.63-.64-.42C18.88,194.87,19.62,194.38,20.06,194.49Z"/><path class="cls-1" d="M297.54,4.6c5.73,1.53,2.36,10.22-1.23,6.61C294.52,9.39,295.35,5.72,297.54,4.6Z"/><path class="cls-1" d="M199.34,102.31c-1.35-.28-2.43-2.2-3.59-3.69.28-.31.47-.1.67.11-.9-1.85-1.25-5.5-4.25-5.05-.28-1.91-2.18-4.07-.15-5.61C196.05,89.67,197.09,98.55,199.34,102.31Z"/><path class="cls-1" d="M213.21,75.42c.61-.14,1.22-.36,1.65.6-.26.13-.33.3-.25.48C213.65,77.16,213.15,76.21,213.21,75.42Z"/><path class="cls-1" d="M130.55,145.64c.18-.17.4-.3.58-.47.52.09,1.33,1.11.46,1.48C130.87,146.4,131.25,146,130.55,145.64Z"/><path class="cls-1" d="M292.72,46.92c.76.92,1,1.79.3,2.5C291.84,49.08,291.44,46.84,292.72,46.92Z"/><path class="cls-1" d="M236.65,93.61c.73,2,.75,3.84-1.21,5.41-.27-.76-.86-.05-1.59-.95C234.69,96.57,235.64,95.09,236.65,93.61Z"/><path class="cls-1" d="M58.43,226.22c1.1.59.91,1.74-.32,2C57.36,227.45,57.31,226.75,58.43,226.22Z"/><path class="cls-1" d="M124.75,182c.2-.14.4-.27.6-.44.64.14,1.34,1.27.26,1.61C125.32,182.79,125,182.4,124.75,182Z"/><path class="cls-1" d="M233.95,119.34c.35-.39.62-.25.93-.37.53.52.46,1-.21,1.37C234.42,120,234.18,119.67,233.95,119.34Z"/><path class="cls-1" d="M306.42,95.66c.53.55,0,.94-.56,1.29-.18-.29-.37-.58-.63-.46C304.83,96,306,95.1,306.42,95.66Z"/><path class="cls-1" d="M385.46,44.93l1-.73c.73.38.76,1-.08,1.57A1.67,1.67,0,0,1,385.46,44.93Z"/><path class="cls-1" d="M27.09,307c.47-.42.91-.54,1.22,0C27.82,307.49,27.38,307.83,27.09,307Z"/><path class="cls-1" d="M397.86,55.77c.69.68-.4,1.48-.8.6C397.62,56,397.22,55.74,397.86,55.77Z"/><path class="cls-1" d="M325.54,122.39c.18-.13.39-.27.58-.43,2.18,2.76,3.23,4.31,6.1,5.53-.5.58-.83.08-1.31.64C328.54,126.65,326.68,125.83,325.54,122.39Z"/><path class="cls-1" d="M109.46,282.46c.48-.45,1.65.86.53,1.14C109.41,283.15,109.89,282.87,109.46,282.46Z"/><path class="cls-1" d="M434.42,50.61c.26-.18.53-.37.8-.57a15.13,15.13,0,0,1,1.9,3.45C436.32,54.94,434.46,51.58,434.42,50.61Z"/><path class="cls-1" d="M421.82,65.18l.41-.27c.05.19.19.13.31,0a3.92,3.92,0,0,1,.3.41c-.17.06-.13.2-.05.35a3.4,3.4,0,0,0-.37.27c-.09-.2-.22-.14-.34-.07-.09-.12-.19-.26-.29-.41C422,65.41,421.91,65.29,421.82,65.18Z"/><path class="cls-1" d="M280.24,180.23c1.77-1.75,4.3-.44,6.66-2.42-.31.76-.88,1.94-1.81,1.62.64,1,1.3,2,2.17,1.74-2.49,2.36-3.63-1.2-6.39-.48-.61,1.07-2.11,1.12-2.8,2.34-.66-.27-1.22-1.09-2-.65C274.5,179.32,278.47,178,280.24,180.23Zm4.72-.1c-.38.22-.6-.58-1-.52-.34.25-.66.48-1,.73C283.45,180.88,284.89,180.87,285,180.13Z"/><path class="cls-1" d="M90.66,322.88c-3.61-2.5,2.85-2.69,0,0Z"/><path class="cls-1" d="M325.92,159.43c0,.4.15.85-.37,1.16C324.61,160.26,325.08,159.37,325.92,159.43Z"/><path class="cls-1" d="M368.74,134.7l.62-.46c.35.34.24.62.36.93C369.34,135.39,369,135.17,368.74,134.7Z"/><path class="cls-1" d="M122.75,332.7c.57.62.76,1.17-.08,1.56.07-.45-.25-.94-.76-.66C121.56,333.11,122.3,332.61,122.75,332.7Z"/><path class="cls-1" d="M172,302.35a2.9,2.9,0,0,1-2.08-1.17C170.7,299.18,173.21,301,172,302.35Z"/><path class="cls-1" d="M160.15,309.17c.63.75.39,1.36-.47,1.87C158.11,311,158.56,308.14,160.15,309.17Z"/><path class="cls-1" d="M180.62,305.46c1,.64.68,2.54-.2,3.45A7,7,0,0,1,180.62,305.46Z"/><path class="cls-1" d="M374.07,173.54c-.18,1.5-1.37,2.82-2.41,4.16A7.75,7.75,0,0,1,374.07,173.54Z"/><path class="cls-1" d="M133.36,349.38c.68-.37,1.35-.54,1.84.48-.37.22-.25.53-.66.77C134.14,350,133.21,350.24,133.36,349.38Z"/><path class="cls-1" d="M339.3,209c-1.76-2.53,1.66-6.29,3-3.71C343.05,206.64,341.19,208.3,339.3,209Z"/><path class="cls-1" d="M466.75,115.95c.5-.18,1.23,0,1.13.68C467.31,117.27,466.66,116.47,466.75,115.95Z"/><path class="cls-1" d="M215.28,303.49c.69.62.49,1.1-.06,1.56-.43-1-1.16,0-1.65-.63C213.74,303.51,214.67,303.92,215.28,303.49Z"/><path class="cls-1" d="M330.9,220.2a2.54,2.54,0,0,1-.29,2.93C330.37,222.11,329.85,221,330.9,220.2Z"/><path class="cls-1" d="M310.75,240.55c1.22.61,3.93.92,3.36,3C312.74,244.57,311.19,241.75,310.75,240.55Z"/><path class="cls-1" d="M187.72,349.66c5,.24,5.92,10-.09,8.19-.66-.78.83-.4,1.2-.86C185.4,357.3,185.33,352,187.72,349.66Z"/><path class="cls-1" d="M219.94,335.6c1.1,1.5-1.94,3.72-3,2.49A6.06,6.06,0,0,1,219.94,335.6Z"/><path class="cls-1" d="M199.85,357.7a2.16,2.16,0,0,1-3.22.53C196.19,356.33,199.81,355.88,199.85,357.7Z"/><path class="cls-1" d="M472.71,160.63c.58-.57,1-.52,1.54-.8.4.53.89,1.08.81,1.52C474.18,161.94,473.39,161.67,472.71,160.63Z"/><path class="cls-1" d="M467.52,165.91c.65.56.39,1,.49,1.45-.61.78-1,0-1.48.48C466.19,167.14,466.38,165.88,467.52,165.91Z"/><path class="cls-1" d="M109.77,426.37a1.55,1.55,0,0,1,1.13-.52,1,1,0,0,1-.09,1.56C110.53,426.7,110.1,426.83,109.77,426.37Z"/><path class="cls-1" d="M384.41,228c.93-.72,1.66-.2,2.32.72A1.92,1.92,0,0,1,384.41,228Z"/><path class="cls-1" d="M229,347.68c-.63.48-.35,1.11-1.28,1.55.66-.7-.83-1.41-.77-.64C225.06,347.64,228.16,345.38,229,347.68Z"/><path class="cls-1" d="M246.39,332.67c1.74-.21,5.59,3,3.92,5C248.46,338.52,244.75,334.42,246.39,332.67Z"/><path class="cls-1" d="M322.5,285c.86,1.92-2.14,2.83-2.63,3.41C320.09,287.13,321.14,286,322.5,285Z"/><path class="cls-1" d="M217.27,372.14c.51-.12,1.24,0,1.11.72C217.79,373.49,217.17,372.66,217.27,372.14Z"/><path class="cls-1" d="M381.58,255.64c.6-.14,1.22-.36,1.66.61-.39.24-.25.56-.66.77A1.9,1.9,0,0,1,381.58,255.64Z"/><path class="cls-1" d="M275.57,335.57c1.41,2.42-2.8,4.6-4.65,4C268.87,337,273.86,334.39,275.57,335.57Z"/><path class="cls-1" d="M183.83,403.63c1.38,1.51,1.39,3.48-.11,4C182.73,406.42,181.43,404.13,183.83,403.63Z"/><path class="cls-1" d="M368.84,282a5.22,5.22,0,0,1-4.19-3.26c-1.95-5.13,6.9-6.4,7.12-1C371.85,279.4,370.23,280.6,368.84,282Z"/><path class="cls-1" d="M446.23,220.78c-1.26.67-1.69,1.47-2.81.23A1.6,1.6,0,0,1,446.23,220.78Z"/><path class="cls-1" d="M457.94,218.62c-2.23,2.69-5.4,2.53-7.8,3C450.81,218.87,456.92,212.74,457.94,218.62Z"/><path class="cls-1" d="M383.73,270.65c.56-.62,1-.2,1.37.2A.69.69,0,1,1,383.73,270.65Z"/><path class="cls-1" d="M439.38,233.29c.86-.4,1.61.07,2.47,0,.09.55-1.27,1.21-1.62,1.16C440,234.06,439.66,233.67,439.38,233.29Z"/><path class="cls-1" d="M470.23,216.9c.64-.66,1.1-.31,1.5.43-.33.23-.65.48-1,.7A1.64,1.64,0,0,1,470.23,216.9Z"/><path class="cls-1" d="M508.57,190.57a1.34,1.34,0,0,1-.69,2.32C506.87,192.44,507,190.17,508.57,190.57Z"/><path class="cls-1" d="M239.21,388.73c.45.45.56.9,0,1.23a1.31,1.31,0,0,1-.61-.45A1.26,1.26,0,0,1,239.21,388.73Z"/><path class="cls-1" d="M449,241.62c1.78,1.38,3.55,2.32,4.72,4.07A13.67,13.67,0,0,1,449,241.62Z"/><path class="cls-1" d="M268.76,375.1c1.33.32,3.42,3.79,3,4.48A23.36,23.36,0,0,0,268.76,375.1Z"/><path class="cls-1" d="M325.43,346.64c-3.85-3,.11-9.5,3.18-6.82,1.67,1.45,2.55,5.5-.69,6.53C326.77,346.22,326,345,325.43,346.64Z"/><path class="cls-1" d="M321.24,346.67c.58.43.09.71.51,1.13-.91.34-.72.69-1.51.8C319.86,347.86,320,346.6,321.24,346.67Z"/><path class="cls-1" d="M476.74,234.17c.2-.13.39-.3.57-.44,1,.64,2.8,1.27,3.09,2.59C479.07,236.47,477.16,236.15,476.74,234.17Z"/><path class="cls-1" d="M275.84,422.63c1.43-1.65,3.14.33,3.06,1.71A2,2,0,0,1,275.84,422.63Z"/><path class="cls-1" d="M310.9,402.93c1.12,1.08.33,1.89.24,2.81C309.3,406.15,308.75,403.18,310.9,402.93Z"/><path class="cls-1" d="M355.41,381.75c.71,2.43.79,4.78,1.31,7.18-.48.62-.84.12-1.27.33.1-1-1.81-2.16-2.43-3.38C352.95,384.5,353.29,381.13,355.41,381.75Z"/><path class="cls-1" d="M530.52,259.82a2.79,2.79,0,0,1-2,2.67C528.18,261.39,529.58,260.15,530.52,259.82Z"/><path class="cls-1" d="M525.8,275.27a4.11,4.11,0,0,1-2.35,5C522.57,278.37,524.18,276.86,525.8,275.27Z"/><path class="cls-1" d="M455.89,334.42c1.21,1.68,1.53,3.16.17,4.4a.63.63,0,0,0-.8-.29C454.35,337.06,453.92,334.33,455.89,334.42Z"/><path class="cls-1" d="M227.61,522c.56.28,1.24.21,1.72,1.16,0,.9-1.37,1.68-2.15,1.56C226.08,524,226.06,522.83,227.61,522Z"/><path class="cls-1" d="M502,324.15c.69.49-.88,3.58-2.18,4.91C498.84,327.15,501.87,325.87,502,324.15Z"/><path class="cls-1" d="M320.83,470.93c.39-.4-.27-1.3-.29-.4-2-1.3,2.18-3.45,2.39-.84C322.77,470.6,321.66,471.42,320.83,470.93Z"/><path class="cls-1" d="M332.69,465.32c.54-.46,1-.1,1.44-.13.7,1,.94,1.91-.25,2.61A3.3,3.3,0,0,1,332.69,465.32Z"/><path class="cls-1" d="M480,362.68c-.64,3.33-2.52,6.41-2.8,10.18-.29,3.1.46,6.51-3.67,8.68,1.93-3,3.72-6.82,1.57-9.89C476.66,368.67,476.9,365.45,480,362.68Z"/><path class="cls-1" d="M471,374.35a7.07,7.07,0,0,1-1.87,4c-.32-.52-.78-.15-1.17-.36C467.4,376.52,469.28,374.95,471,374.35Z"/><path class="cls-1" d="M512.35,345.86c2,1.73,2.67,5.12,2.89,7.77.24,2.14.51,4.95-.76,6C514.88,355.2,514.77,350.71,512.35,345.86Z"/><path class="cls-1" d="M336.88,475.23c5.32,1.09,1.94,9.87-2.07,7.52C332.65,479.89,333.62,476.66,336.88,475.23Z"/><path class="cls-1" d="M236,552.32c1.17,1.33.14,2.35-.54,3.38-.69-.37-1.43-.54-2.12-.84C233.73,553.82,234.65,552.16,236,552.32Z"/><path class="cls-1" d="M514.54,360.49a5.78,5.78,0,0,1-.85,6.34C513.61,364.66,514.62,362.65,514.54,360.49Z"/><path class="cls-1" d="M361.28,490.61c-.37-.45.19-1.75-.91-.85C359.43,486.18,365.12,489.83,361.28,490.61Z"/><path class="cls-1" d="M587.93,333.12c4.22-5.06,10.44,2.3,6,5.3C591,340.35,584.88,336.75,587.93,333.12Z"/><path class="cls-1" d="M542.72,372c-.72.18-3.18-2.37-3.08-3.81C541.28,367.71,541.34,370.79,542.72,372Z"/><path class="cls-1" d="M323,532.83c.41.38.24.63.36.95a.92.92,0,0,1-1.36-.23A1,1,0,0,1,323,532.83Z"/><path class="cls-1" d="M542.84,373.36a.63.63,0,0,1,.49,1.14c3.53-.22,4.06,3.64,1.7,5.67-.7-.62-.45-1.1-.94-1.7-.42-.21-.93,0-1.47.47a7.1,7.1,0,0,0-.21-2c.44-.41.69.07,1.14-.53C543.53,375.48,542.71,374.33,542.84,373.36Z"/><path class="cls-1" d="M455.41,440.38c.42.07.76.54,1.1,1.05-.47.37-1,.71-1.34.66A1,1,0,0,1,455.41,440.38Z"/><path class="cls-1" d="M528,398.56c1.44.07,2.95-.49,4.34.17-1.53,1.68-2.52.44-3.82,1C528.08,399.29,528.57,399,528,398.56Z"/><path class="cls-1" d="M301.07,571a2.42,2.42,0,0,1-2.7,1.67C295.71,570.21,300.59,567.82,301.07,571Z"/><path class="cls-1" d="M528.05,406.94c.62-.52,1.13-.46,1.57.08l-1.38,1C527.55,407.57,528.77,407.4,528.05,406.94Z"/><path class="cls-1" d="M377,546.3c2.68.11,1.1,3.7-.88,2.14A1.63,1.63,0,0,1,377,546.3Z"/><path class="cls-1" d="M282.62,615.71c.29,0,.52.43.84.29.71,1.27.74,2.43-.54,3.41C281.72,618,280.72,616.62,282.62,615.71Z"/><path class="cls-1" d="M530.6,443.62c2.31.08,4.66-.06,6.66,2.12C535.2,447.64,532.74,444.45,530.6,443.62Z"/><path class="cls-1" d="M326.59,599.16a1.48,1.48,0,0,1-.72,2.3C323.76,601.05,324.71,598,326.59,599.16Z"/><path class="cls-1" d="M551.3,447.26A1.12,1.12,0,0,0,552,447c.53.52.46,1-.2,1.35A1.46,1.46,0,0,1,551.3,447.26Z"/><path class="cls-1" d="M594.38,418.73c.2-.16.38-.3.58-.43.68.43.05.68.16,1.06C594.82,419.51,594.61,419,594.38,418.73Z"/><path class="cls-1" d="M315.76,622.37c.44-.31.76.16,1.1.67C316.24,624.25,315.84,623.21,315.76,622.37Z"/><path class="cls-1" d="M628.63,275.35c.32-.23.68-.48,1-.7.13.25.3.33.5.27.51.71,0,1.29-.78,1.78C628.92,276.22,628.58,275.75,628.63,275.35Z"/><path class="cls-1" d="M529.71,484.27c-.08.56-1,.43-1.59,1.15C525.83,483.64,529.63,481.69,529.71,484.27Z"/><path class="cls-1" d="M584,450c-.16,1.22-1.34,1.77-2.56,1.86C579.44,449.89,582.91,448.07,584,450Z"/><path class="cls-1" d="M573.78,458.34c.46.72.67,1.38.2,2C572.12,461.31,571.66,457.73,573.78,458.34Z"/><path class="cls-1" d="M480.65,526.17c.47-.26.81.22,1.11.71a.92.92,0,0,1-1.37-.22C480.67,526.53,480.73,526.37,480.65,526.17Z"/><path class="cls-1" d="M535.38,489.2a31.42,31.42,0,0,1,8.68,2.42C541.15,490.86,538.07,491.11,535.38,489.2Z"/><path class="cls-1" d="M463.24,550.26c.09.77.7,1.62-.2,2.24C463.18,551.74,462.23,550.86,463.24,550.26Z"/><path class="cls-1" d="M266.71,695a1.17,1.17,0,0,0,.73-.23c.53.54.47,1-.22,1.34A1.56,1.56,0,0,1,266.71,695Z"/><path class="cls-1" d="M733.91,316a.93.93,0,0,1,1.51.09c-.26.64-.43,1-1.22,1.19C734.21,316.83,733.89,316.36,733.91,316Z"/><path class="cls-1" d="M500,530.82c.76-.49,1.45-.24,2,.67C501.26,531.64,500.51,531.83,500,530.82Z"/><path class="cls-1" d="M452.58,566.71c.05-1.25,2.13-.19,1.82.82C453.26,568.16,453.52,566.46,452.58,566.71Z"/><path class="cls-1" d="M590.28,477.36c.39-.28.77-.57,1.21-.86.43.29,1,.29,1.34,1.07C591.94,477.84,591,478.13,590.28,477.36Z"/><path class="cls-1" d="M510.89,540.06c.23.32.48.65.7,1-.11.68-1,1-1.58,1.16C509.41,541.33,509.8,540.64,510.89,540.06Z"/><path class="cls-1" d="M505.93,549.37a3.73,3.73,0,0,1,1.3,3.88c-.51.57-.88.31-1.34.64C504.89,552.24,504.78,550.71,505.93,549.37Z"/><path class="cls-1" d="M468.05,578c1.7,1.63,1.3,4.41,1.95,6.43-1.31-.65-.54-3.35-1.65-3.91C469.11,580.07,468.21,579.39,468.05,578Z"/><path class="cls-1" d="M331.56,681.9c.68-.33,1.35-.53,1.88.12-.18.15.06.36.12.56-.7.64-1.31.78-1.82.4S331.86,682.29,331.56,681.9Z"/><path class="cls-1" d="M506.57,557.33c2-.53,3.93-.64,5.64.72-1.79,2.33-3.71-.09-5.11.39A1.54,1.54,0,0,1,506.57,557.33Z"/><path class="cls-1" d="M636.41,341.66a1.34,1.34,0,0,0,.9-.37c.78.59,0,.89.12,1.41C636.61,342.86,636.61,342.06,636.41,341.66Z"/><path class="cls-1" d="M501.52,567.35c-1-.71-2.49-1-3.82-2.36C498.93,565.39,501,566,501.52,567.35Z"/><path class="cls-1" d="M469.84,585.49c.4-.36.6.64.89.82-.24.16-.3.32-.23.51C469.74,587,470.36,585.88,469.84,585.49Z"/><path class="cls-1" d="M501.56,567c.78.12,1.49,1,2.26,1C503.64,568.75,501.51,567.84,501.56,567Z"/><path class="cls-1" d="M300.76,715.36c2.59-2.5,7-2.8,6.91,1.62,0,1.46-1.15,6-3.59,7.11-1.84.87-4.44-.39-5.43-3C298.08,719.68,299,717.08,300.76,715.36Z"/><path class="cls-1" d="M651.88,339.73a1.25,1.25,0,0,1-1.2.89c-.19-.26-.37-.5-.57-.79C650.51,339,651.29,338.83,651.88,339.73Z"/><path class="cls-1" d="M639.69,319.26c3.09,1.33,3.74,5.74,0,6.26C637.55,323.72,636.93,320.81,639.69,319.26Z"/><path class="cls-1" d="M674,330.89c-1.26-1.71,1.21-4.05,1.94-1.42C675.85,330.23,674.87,331.21,674,330.89Z"/><path class="cls-1" d="M764,357.85c.5-.36.94-.71,1.34-.6.76.74.73,1.37-.13,1.86C764.39,359,764.44,358.71,764,357.85Z"/><path class="cls-1" d="M502.68,587.23c.32,1.14.65,3.83-.32,5.33C501.52,590.65,502.54,589.62,502.68,587.23Z"/><path class="cls-1" d="M502.29,595.37c2.53.54-1.13,6.22-3.43,4C500.86,598.09,502.2,597.2,502.29,595.37Z"/><path class="cls-1" d="M486.92,611.93c-.49.32-.34.74-1,1a6.89,6.89,0,0,1-1.27-.9C485,611,486.13,610.32,486.92,611.93Z"/><path class="cls-1" d="M456.4,632.54a1.65,1.65,0,0,1,1.06,2.26c-.83.44-1.53,0-2.12-.85C455.65,633.45,455.63,632.92,456.4,632.54Z"/><path class="cls-1" d="M567.69,553.63c.89-.29.46,1,1.22.89C568.8,555.62,567.61,554.27,567.69,553.63Z"/><path class="cls-1" d="M428.36,656.48c.58.52.32.88.64,1.33-.48.37-1.05.89-1.51.79C426.24,658.09,427.09,656.62,428.36,656.48Z"/><path class="cls-1" d="M681.27,358.73c-2.16,2.35-5.16-.25-5.07-2C677.57,354.54,681.18,356.28,681.27,358.73Z"/><path class="cls-1" d="M307.35,749.71c.35-.38.6-.25.91-.38.22.38,0,.69-.47,1C307.62,750.11,307.49,749.9,307.35,749.71Z"/><path class="cls-1" d="M630.05,516.49c1.13.73,1.39,1.79-.17,2.57C628.23,518.39,628.37,516.23,630.05,516.49Z"/><path class="cls-1" d="M470.61,635.5c.38.35.24.61.36.93a.93.93,0,0,1-1.35-.21A.91.91,0,0,1,470.61,635.5Z"/><path class="cls-1" d="M478.94,634.54a1.63,1.63,0,0,1-2.91-.28C476.21,632.69,478.62,632.4,478.94,634.54Z"/><path class="cls-1" d="M522.06,606.87c.47-.43.85-.19,1.18.38C522.62,607.89,522,607.36,522.06,606.87Z"/><path class="cls-1" d="M497.67,627.59a1.45,1.45,0,0,1,.89.84l-1.18.86A1,1,0,0,1,497.67,627.59Z"/><path class="cls-1" d="M698.53,365.47a2.49,2.49,0,0,1-1.86-1.68C697.93,360.88,701.7,364,698.53,365.47Z"/><path class="cls-1" d="M507,625.05a.89.89,0,0,1-1,.72C505.28,625,506.35,623.76,507,625.05Z"/><path class="cls-1" d="M487.59,651.43c.13.25.3.33.51.28,1.14,1.5.37,3.81-1.5,3.76C485.65,654,485.51,651.85,487.59,651.43Z"/><path class="cls-1" d="M441,694.6a1.19,1.19,0,1,1-1.19,2.07A1.27,1.27,0,0,1,441,694.6Z"/><path class="cls-1" d="M605,581c.46.61.14,1.06.25,1.63-.73.51-.72.17-1.16.87C602,582.57,603.32,579.84,605,581Z"/><path class="cls-1" d="M658.68,419.63c.35.48.66.94,1,1.39a2.27,2.27,0,0,1-2.15,1.59C656.06,421.79,657.09,420,658.68,419.63Z"/><path class="cls-1" d="M674.34,534.33a2.52,2.52,0,0,1,1.09,1.9c-.53.38-1.1.9-1.54.82A1.48,1.48,0,0,1,674.34,534.33Z"/><path class="cls-1" d="M505.91,658c.44-.52.68.1,1.06-.17.26.7-.16.43-.64.76C506.2,658.41,506.07,658.22,505.91,658Z"/><path class="cls-1" d="M669.16,422.88a1.26,1.26,0,0,1,1.3-.3c.41.53-.12.9-.57,1.3C669.32,423.34,669.48,423.57,669.16,422.88Z"/><path class="cls-1" d="M608.82,592.08c2.1.34,2.73,2.51,3.91,3.78C611,595.76,609.6,593.36,608.82,592.08Z"/><path class="cls-1" d="M748.37,487.15c-.45.4.12,1-.6,1.33-.54.16-1.84-.6-1.66-1.47S747.74,486.43,748.37,487.15Z"/><path class="cls-1" d="M616.34,600.76c1.35.26,3.14.92,3.75,2.69-.7.24-.31.65-.84.93A5.17,5.17,0,0,1,616.34,600.76Z"/><path class="cls-1" d="M527.37,668.93c.4,0,.85-.36,1.22,0,.61.5-.23.78,0,1.23A1,1,0,0,1,527.37,668.93Z"/><path class="cls-1" d="M710.9,417c-.86,1.09-2,2.31-3.33,2.42C705.68,417.23,709.68,414.12,710.9,417Z"/><path class="cls-1" d="M396.14,768a1,1,0,0,1-.78,1.79C394.56,768.94,395.26,768.18,396.14,768Z"/><path class="cls-1" d="M643.89,590.68c.61.45.12.73.55,1.14-.61.39-1.19.74-1.58-.06C642.92,591.36,643.4,591,643.89,590.68Z"/><path class="cls-1" d="M536.81,673.22c.24-.18.5-.38.79-.57.15.25.36.53.55.78C537.58,674.09,537.14,674,536.81,673.22Z"/><path class="cls-1" d="M706.76,429.9l.56-.43a1.81,1.81,0,0,1,.94.84c-.42.59-.71.1-1.12.54C706.86,430.51,707.09,430.27,706.76,429.9Z"/><path class="cls-1" d="M702.33,435.83a2,2,0,0,1,1.72,2.37c-.77.87-1.38.62-2.05.9C700.72,437.93,700.54,436.87,702.33,435.83Z"/><path class="cls-1" d="M645.87,605.82c1.85,1.47-.05,2.9-.17,4.32C645.81,608.73,643.48,606.9,645.87,605.82Z"/><path class="cls-1" d="M479.31,727.55a1.48,1.48,0,0,1,1.14-.5.92.92,0,0,1-.23,1.35A1.57,1.57,0,0,1,479.31,727.55Z"/><path class="cls-1" d="M737.77,543.35c-2-1.92.47-4.11,1.7-3C740.54,541.24,739.71,543.45,737.77,543.35Z"/><path class="cls-1" d="M431.33,767.18c.35-.4.63-.26,1-.37a7,7,0,0,0,.44.58.92.92,0,0,1-1,.71C431.44,767.77,431.66,767.53,431.33,767.18Z"/><path class="cls-1" d="M719,567.23c0,.25.09.76.44.58-1,3.7-6.42,5.11-8.34,2.16-1.11-1.62-.52-5,2.09-4.55,1.08.2,1.38,1.59,2.3,1.94C716.58,567.79,717.45,567.35,719,567.23Z"/><path class="cls-1" d="M772.69,524.34c-.9.36,0,1-1.08,1.38C768.51,525.64,770.86,521,772.69,524.34Z"/><path class="cls-1" d="M723.2,561.44c-.09.57-1.06,1-1.63,1.47-1-.36-.92-.8-1.62-1.79C720.38,560.41,722.85,559.13,723.2,561.44Z"/><path class="cls-1" d="M536.07,706.25c.45-.59.72-.1,1.14-.52a14.81,14.81,0,0,0,5.23,4.32,2.16,2.16,0,0,1-.4,1.5C539.38,711.14,537.23,709.09,536.07,706.25Z"/><path class="cls-1" d="M737,563.48c-1.43-2.6,2.32-4,3.36-2.42C741.48,562.81,738.72,564.32,737,563.48Z"/><path class="cls-1" d="M745.89,557.89c-3.85-3,3.59-3.28,0,0Z"/><path class="cls-1" d="M761.76,546.14c.29.67-.57.12-.82.58a1.57,1.57,0,0,0-.49-1.16c.49.12,1.14-.58,1.51.08C761.2,546.07,760.79,546.19,761.76,546.14Z"/><path class="cls-1" d="M383.57,822c.31.47.65.93,1,1.4a1.44,1.44,0,0,1-2.7.42A2.47,2.47,0,0,1,383.57,822Z"/><path class="cls-1" d="M549.61,706.64c.51.13,1.09-.42,1.52.42-.12.74-.66.32-1.18.87C549.32,707.42,549.8,707.09,549.61,706.64Z"/><path class="cls-1" d="M669.36,620.38c.4,0,.86-.36,1.26-.33.29.32.07.58.37.93C670.36,621.39,669.79,621.15,669.36,620.38Z"/><path class="cls-1" d="M419.51,806.45c.33-.29.6-.06.93-.37.57.61.77,1.17-.08,1.54A1.69,1.69,0,0,1,419.51,806.45Z"/><path class="cls-1" d="M457.16,779.14c.32-.25.64-.48,1-.72.66.62.34,1.09-.42,1.5C457.57,779.67,457.33,779.39,457.16,779.14Z"/><path class="cls-1" d="M556.43,728.49c.56-.59,1-.55,1.51-.8.84.81.44,1.43-.3,2C556.49,729.64,557.36,729,556.43,728.49Z"/><path class="cls-1" d="M724.09,608.33c.36-.27.59-.06,1-.38a1,1,0,0,1-.27,1.38A1,1,0,0,1,724.09,608.33Z"/><path class="cls-1" d="M576,726c.53.44-.09.69.19,1.07a.91.91,0,0,1-1.37-.21C575.24,726.48,575.34,725.9,576,726Z"/><path class="cls-1" d="M199.08,102.81c.57,1,3.21,3.77,1.47,4.94-.6-.39-1.71-2.65-.77-2.74-.32-.23-.51-1.19-.91-.84C198.87,103.72,199.08,103.29,199.08,102.81Z"/><path class="cls-1" d="M313.18,31.18c-1.2,4.36-5.53,8.28-8.1,12.48C306.11,39.91,309.65,35.06,313.18,31.18Z"/><path class="cls-1" d="M201,296.69c2,1.52.5,3.86.15,5.58-1.14.2-.28-1.64-1-1.36-.15-.28.4-.7.6-.46.35-.28-.36-.74-.19-1C200,300.77,199.54,297.2,201,296.69Z"/><path class="cls-1" d="M366.12,397.75c1.39-1.45,3.71.92,5.54.18,2.15,2.3,7.35.54,7.55,4.17-3.49-.07-6.65-2.82-9.7-2.6-.39-1.82-2.1-.09-1.55-1.29-.4-.24-.38.24-.59.43A1.64,1.64,0,0,0,366.12,397.75Z"/><path class="cls-1" d="M281.1,464.28c1.24,1.81-.06,3.21-1.46,4.63-1.2,5.16-2.42,10.31-4.86,15.27-.13-.52-1.11-.86-.83-.29-.22-2.62,2.88-7.94,4.07-11.39C279.1,469.45,278.54,466,281.1,464.28Z"/><path class="cls-1" d="M492.9,339.45c-.08,1.56-1.35,2.9-2.2,4.35C491.3,342.32,491.16,340.73,492.9,339.45Z"/><path class="cls-1" d="M480.71,362.43c-.53-1.34,1.63-4.73,2.71-5.84.41-3.18,3.34-6,4.93-9,.28-.31.52-.12.31.05C486.72,352.69,483.36,357.52,480.71,362.43Z"/><path class="cls-1" d="M370.29,525c-4.22-1.92-3-8.43-2.62-11.94.11-1.25-.63-2.43.51-3.4,1.31-1.09,4.27-.4,5,.6C375.58,513.82,374,522.18,370.29,525Z"/><path class="cls-1" d="M510.26,536.3a27.46,27.46,0,0,0,4-.78c1.06,1.17,1.41,2.2.37,3A13.67,13.67,0,0,1,510.26,536.3Z"/><path class="cls-1" d="M469.71,384.58c-2,3-5.82,6.91-9.45,6.86C462.31,387.92,466.87,387.35,469.71,384.58Z"/><path class="cls-1" d="M56.15,327.16c.09-.52-.53-1.33-1.11-.71C54.91,327.15,55.64,327.3,56.15,327.16Z"/><path class="cls-1" d="M487.23,281c0-3.24-4.33-5.11-6.45-7.63-7.84-9.47-16-19.53-25.47-26.42.33,2.42,3.56,3,4.1,5.22,1.72.33,2.23,1.84,3.62,3.34,1.57,1.78,4,3.21,5.56,4.74,2.3,2.27,3.64,5.43,6.36,6.77-.24,0-1,.05-.42.61A75.59,75.59,0,0,1,484,278.24C485.32,280,485.54,281.41,487.23,281Z"/><path class="cls-1" d="M501.4,246.66a3.43,3.43,0,0,0,0-3.34c-1.23-1.84-3.82-.56-4.84-2.51-.89-1.64,1.48-2.62,1.23-4.5-.53-1.08-1.25-1.12-1.82-1.7-4.52,1.59-6.53,6.85-5.38,9.94S498.15,250.8,501.4,246.66Z"/><path class="cls-1" d="M484.12,555c.8-.63,1.37.14,2.15-.34-.17-.33.27-.54.28-.84-1.58-1.16-7.5-2.72-6.11.25.42.91,2.13,1,3.08,1.37-.89.48.37.33.51,1.12C485.16,555.8,483.37,555.6,484.12,555Z"/><path class="cls-1" d="M576.28,507.38c-1.55-1.76-4.2-2.95-5.37-3.65-.21.15-.39.29-.6.43,2.61,2.85,5.13,4.11,7.62,9.25C579.88,511.82,577.64,509,576.28,507.38Z"/><path class="cls-1" d="M652.29,501.88c-2.65-2.23-12.39-1-15.45.65-.69.38-1.26,1.31-2.23,1.95-2.69,1.71-6,1.35-6.59,4.2-.24,1.27.56,2.74,1.6,4.24,3,1.43,6.16,3,10.17.72,2.4,1.34,4.91.29,7.5,0,1.27-.13,2.15.26,3.14-.19,1.2-.52,1.83-1.77,3-2.48s3.21-.44,4-2c-.13-1.56-1.53-1.76-2.32-2.79C654.1,504.92,653.69,503,652.29,501.88Z"/><path class="cls-1" d="M662.28,396c2.6-1.28,4.83-.32,7,.59,4.47-2.17,6.22-7,2-10.49C665.91,384.72,661.44,391.79,662.28,396Z"/><path class="cls-1" d="M574.74,588.21c1.22-4.4-5-6.1-6.74-4.71-2,1.57-2.94,4.69-1.1,6.8C569.07,592.8,573.79,591.56,574.74,588.21Z"/><path class="cls-1" d="M608.67,563.29a3.58,3.58,0,0,0-2.79,1.12c-1.21,1.54.61,3.2,1.1,5.23.56,2.46-1.17,7,1.78,7.43a2.21,2.21,0,0,1,1.3-.66c.92-1.52-.29-3.4-.4-5.11,2.64-2.2,2.52-5.16,1.2-7.5,2.17-1.6,3.53,2.08,5.45,2.1,1.58-3.17-3.62-5.2-5-7.24C608.7,559.24,610.45,562,608.67,563.29Z"/><path class="cls-1" d="M628.13,569.35c4,4.11,12.79-2,7.95-7.3-.87-.95-2.11-.9-3.41-1.38,1.4-2.28-4-6.34-4.39-3.16,1.31,1.65,2.65,1.91,3,3.25C625.82,561.52,625.69,566.87,628.13,569.35Z"/><path class="cls-1" d="M648.91,580.16c2.45,0,5-2.75,5.62-4.68,1.58-4.94-6.33-10.35-10.07-5.63C642.43,572.37,644.39,580.08,648.91,580.16Z"/><path class="cls-1" d="M502.93,728.17c-.3.12-.48-.37-.74-.65.24-.18.53-.37.77-.57C503.61,727.46,502.74,727.73,502.93,728.17Z"/><path class="cls-1" d="M93.71,127.2c-2.47-4.27,2.54-4.84,4.88-4.92,0,0-.06,0-.08-.09,4.72-.23,10.54,1.57,15.59,2.84,2.22,1.72,5.51,3.07,7.91,5.11,2.12,2.3,4.61,6,7.19,7.4-11.19-15.9-24.75-16.89-38.56-16.24C84.42,122.1,89.2,131.61,93.71,127.2Z"/><path class="cls-1" d="M419.79,217.08c-4.62-3.77-10.19-7.08-15-10.74-3.28-2.47-6.45-4.87-9.4-6.72-.81-.56-1.92-1.71-3.08-1.37,5.19,5,12.88,8.52,19.33,13.34,4.93,3.73,9.6,9.29,15.48,12.24A77.8,77.8,0,0,0,419.79,217.08Z"/><path class="cls-1" d="M260.83,355.88c-1.16-2.66-1.4-6.43-4.07-7.25-1.76.6-2.87,3.54-.75,4.75-.32-.47,2,.43,2.61,1.1.89,2.82.89,6,3.94,7.07,0,.9-1.06,1.46-.14,1.91,0-.51.29.65.69.11a53.93,53.93,0,0,0,5.15,9.19C265.74,367.71,263,360.95,260.83,355.88Z"/><path class="cls-1" d="M480.84,309.08c.11-2.93-3.29-7.19-5.56-8.88-3.83-2.94-8.53-5.35-12.35-8.77-4.84-4.27-10.11-8.92-15.64-11.54a51.11,51.11,0,0,0-10.79-3.28c-4-.94-7.38-2.77-10.9-3.83-1.88,1.15-1.38,2.61-3,3.37.82,1.33,2,.68,3,1.15-.29-.44.17-.76.69-1.06,5.81-.07,10.94,1.49,16.22,3.24.73-.42.62.37,1.14-.5.4.8,2.24,1.49,3.4,1.71-.48.61,0,.48.36,1,4.6,1,8.37,6,12.32,7.91.17.91.85,1.26,1.53,2.49,4.6,4.27,9.83,7.76,14.42,11.18.54,2.69,1.92,3,2,5.22.07,2.49-2.26,4.58-2,6.81s3.46,4.76,5.31,5.21c-1.13-2.1-2.52-2.89-2.83-5.17C478.74,313.17,480.8,311.14,480.84,309.08Z"/><path class="cls-1" d="M297.79,451.22c-1.88-2.08-4.4-.08-6.56-.33-.94-1.74-.19-3.51-.21-5.28-.06-6-1.21-11.9.18-17.58.35-1.42,1.35-2.68,1.53-4.11.15-1.27-.71-2.65-.09-3.86,2.56,4.22-.49,9.92,2.1,14.11,2.27-3.31,1.13-7.31,1.31-11.46.16-4,1.52-8.71.62-11.58-1.19-3.74-6.3-6.68-8.56-3.12-2.55,4,4.63,13.52-3.81,15.08.44.49.79.94,0,1.22,3.69,1.86,3.41,5.47,2.22,8,.53,1.14,1.28.8,1.82,1.68a106.29,106.29,0,0,0-.13,11.84c.09,2.27-.35,7.52.64,9.16C290.69,458.13,298.41,456.53,297.79,451.22Z"/><path class="cls-1" d="M465.09,619.62c.1.17,0,.35-.22.49.15.85.53.91,1.14,1.58,1.15,0,3.09-.77,2.61-2.21A3.87,3.87,0,0,0,465.09,619.62Z"/><path class="cls-1" d="M474.14,615.48c-2.17-1.41-6.37,1.34-5.52,4a11.83,11.83,0,0,0,3.64,1.26c2.74,1.35,4.38,3.66,7.54,2.94-.33-2.74-3.06-2.06-4.28-3.81C474.78,618.78,475.93,617,474.14,615.48Z"/><path class="cls-1" d="M58.28,333.43c.86-1.6,2.39-2.86,2.32-4.68-.2.13-.39.27-.6.43-1.31,3.66-5.13,4.65-7.67,7.66-2.14,2.55-3,6.13-5.06,8.79-1.66,2.17-3.74,3.78-5.16,6.14-1.28,2.14-2.35,4.32-3.81,6.38-2.9,4.11-6,8.4-7.12,13,4.58-4.29,7.32-10,11-15.17,1.56-2.24,3.55-4.32,5.08-6.69s2.74-5.05,4.59-6.93c1.45-1.48,3.36-2.47,4.5-4.17C57.16,336.92,57.46,335,58.28,333.43Z"/><path class="cls-1" d="M371.6,179.25c-.19-.21-.4-.42-.68-.11-.25,2.45-2.74,5-1.28,7s6.72.58,8.14,4.6c4.24,1.08,8.16,4.45,12.35,5.81-.15.52,1.75,1.58,1.79.81-1.32-.19-2.31-2.22-3.69-2.15-3.62-2.22-8.91-7.54-13.18-9.07-1.35-.52-3.84-.85-4.42-1.94C369.85,182.71,371.43,180.69,371.6,179.25Z"/><path class="cls-1" d="M434,196.83c-6.25,4.64.66,15.33,6.59,9.09,5.08-5.32-6.59-13.07,2.56-17.22C437.92,186.47,434.17,192.74,434,196.83Zm.86,7.84c-.7.26-.33-.71-.7-1,.6-.08,1.18-.22,1.68.27C435.54,204.57,434.61,204,434.86,204.67Z"/><path class="cls-1" d="M273.67,388.09A25.3,25.3,0,0,0,278,397c.44.14,1-.35,1.35.23,1.53-.9,2.1-2.38,3.4-1.55,2.91,5.85,7.22,2.81,10.88,3.83a10.48,10.48,0,0,0,3.82,2.35,3.75,3.75,0,0,0,4,2.19,8.32,8.32,0,0,0,4.66,3.53c.41.56-.87-.08-.09.68.38.66.2-.91.73-.23-.36,1.14-.1,1.14-.81,1.8,2.13,4,8.36,3.22,10.36,7.24,1.24-.27.56.1.77.64,1.4,1.53,5.42.55,5.1-2.5a5.53,5.53,0,0,0-1.6-1.82c-3.36-1.51-6.69-2.61-10-4.2-2.36-1.15-4.1-3.2-6.55-4.89-1.78-1.23-3.84-2.16-5.68-3.68-4.14-3.43-6.13-6.35-10.27-7.92-6.54-2.48-11.81-4.72-15.84-13.16-1.87,1.77,2.56,4.17,2.74,5.84C273.94,385.66,274.82,387.28,273.67,388.09Z"/><path class="cls-1" d="M466,568.14a5.8,5.8,0,0,1,.6-.42,22.86,22.86,0,0,1,1.33,4.73,1.29,1.29,0,0,0-.93.37C465.61,571.12,467.05,569.84,466,568.14Z"/></g></g></svg>